<mxfile host="Electron" agent="Mozilla/5.0 (Windows NT 10.0; Win64; x64) AppleWebKit/537.36 (KHTML, like Gecko) draw.io/26.0.4 Chrome/128.0.6613.186 Electron/32.2.5 Safari/537.36" version="26.0.4">
  <diagram name="Page-1" id="R_M-jZn4rv1SXgoTYbhI">
    <mxGraphModel dx="1434" dy="844" grid="1" gridSize="10" guides="1" tooltips="1" connect="1" arrows="1" fold="1" page="1" pageScale="1" pageWidth="1169" pageHeight="827" math="0" shadow="0">
      <root>
        <mxCell id="0" />
        <mxCell id="1" parent="0" />
        <mxCell id="KCdfxB29JOxLrwtLFPlU-3" value="&lt;p style=&quot;margin:0px;margin-top:6px;text-align:center;&quot;&gt;&lt;b&gt;MCF Service&lt;/b&gt;&lt;/p&gt;&lt;hr size=&quot;1&quot; style=&quot;border-style:solid;&quot;&gt;&lt;p style=&quot;margin:0px;margin-left:8px;&quot;&gt;&lt;br&gt;&lt;/p&gt;" style="align=left;overflow=fill;html=1;dropTarget=0;whiteSpace=wrap;" vertex="1" parent="1">
          <mxGeometry x="531" y="78" width="409" height="720" as="geometry" />
        </mxCell>
        <mxCell id="KCdfxB29JOxLrwtLFPlU-4" value="" style="shape=component;jettyWidth=8;jettyHeight=4;" vertex="1" parent="KCdfxB29JOxLrwtLFPlU-3">
          <mxGeometry x="1" width="20" height="20" relative="1" as="geometry">
            <mxPoint x="-24" y="4" as="offset" />
          </mxGeometry>
        </mxCell>
        <mxCell id="KCdfxB29JOxLrwtLFPlU-16" value="" style="ellipse;whiteSpace=wrap;html=1;align=center;aspect=fixed;fillColor=none;strokeColor=none;resizable=0;perimeter=centerPerimeter;rotatable=0;allowArrows=0;points=[];outlineConnect=1;" vertex="1" parent="1">
          <mxGeometry x="521" y="338" width="10" height="10" as="geometry" />
        </mxCell>
        <mxCell id="KCdfxB29JOxLrwtLFPlU-21" value="&lt;b&gt;OLTP Database&lt;/b&gt;" style="html=1;dropTarget=0;whiteSpace=wrap;fillColor=#d5e8d4;strokeColor=#82b366;" vertex="1" parent="1">
          <mxGeometry x="1020" y="402" width="180" height="80" as="geometry" />
        </mxCell>
        <mxCell id="KCdfxB29JOxLrwtLFPlU-22" value="" style="shape=module;jettyWidth=8;jettyHeight=4;" vertex="1" parent="KCdfxB29JOxLrwtLFPlU-21">
          <mxGeometry x="1" width="20" height="20" relative="1" as="geometry">
            <mxPoint x="-27" y="7" as="offset" />
          </mxGeometry>
        </mxCell>
        <mxCell id="KCdfxB29JOxLrwtLFPlU-23" value="«Component»&lt;br&gt;&lt;b&gt;Tasks&lt;/b&gt;" style="html=1;dropTarget=0;whiteSpace=wrap;" vertex="1" parent="1">
          <mxGeometry x="621" y="128" width="180" height="90" as="geometry" />
        </mxCell>
        <mxCell id="KCdfxB29JOxLrwtLFPlU-24" value="" style="shape=module;jettyWidth=8;jettyHeight=4;" vertex="1" parent="KCdfxB29JOxLrwtLFPlU-23">
          <mxGeometry x="1" width="20" height="20" relative="1" as="geometry">
            <mxPoint x="-27" y="7" as="offset" />
          </mxGeometry>
        </mxCell>
        <mxCell id="KCdfxB29JOxLrwtLFPlU-63" style="edgeStyle=orthogonalEdgeStyle;rounded=0;orthogonalLoop=1;jettySize=auto;html=1;dashed=1;endArrow=none;endFill=0;fillColor=#d5e8d4;strokeColor=#82b366;strokeWidth=1.5;" edge="1" parent="1" source="KCdfxB29JOxLrwtLFPlU-64" target="KCdfxB29JOxLrwtLFPlU-61">
          <mxGeometry relative="1" as="geometry" />
        </mxCell>
        <mxCell id="KCdfxB29JOxLrwtLFPlU-25" value="«Component»&lt;br&gt;&lt;b&gt;Quality&lt;/b&gt;" style="html=1;dropTarget=0;whiteSpace=wrap;" vertex="1" parent="1">
          <mxGeometry x="621" y="238" width="180" height="90" as="geometry" />
        </mxCell>
        <mxCell id="KCdfxB29JOxLrwtLFPlU-26" value="" style="shape=module;jettyWidth=8;jettyHeight=4;" vertex="1" parent="KCdfxB29JOxLrwtLFPlU-25">
          <mxGeometry x="1" width="20" height="20" relative="1" as="geometry">
            <mxPoint x="-27" y="7" as="offset" />
          </mxGeometry>
        </mxCell>
        <mxCell id="KCdfxB29JOxLrwtLFPlU-27" value="«Component»&lt;br&gt;&lt;b&gt;Payment&lt;/b&gt;" style="html=1;dropTarget=0;whiteSpace=wrap;" vertex="1" parent="1">
          <mxGeometry x="621" y="353" width="180" height="90" as="geometry" />
        </mxCell>
        <mxCell id="KCdfxB29JOxLrwtLFPlU-28" value="" style="shape=module;jettyWidth=8;jettyHeight=4;" vertex="1" parent="KCdfxB29JOxLrwtLFPlU-27">
          <mxGeometry x="1" width="20" height="20" relative="1" as="geometry">
            <mxPoint x="-27" y="7" as="offset" />
          </mxGeometry>
        </mxCell>
        <mxCell id="KCdfxB29JOxLrwtLFPlU-29" value="«Component»&lt;br&gt;&lt;b&gt;Job applications&lt;/b&gt;" style="html=1;dropTarget=0;whiteSpace=wrap;" vertex="1" parent="1">
          <mxGeometry x="621" y="468" width="180" height="90" as="geometry" />
        </mxCell>
        <mxCell id="KCdfxB29JOxLrwtLFPlU-30" value="" style="shape=module;jettyWidth=8;jettyHeight=4;" vertex="1" parent="KCdfxB29JOxLrwtLFPlU-29">
          <mxGeometry x="1" width="20" height="20" relative="1" as="geometry">
            <mxPoint x="-27" y="7" as="offset" />
          </mxGeometry>
        </mxCell>
        <mxCell id="KCdfxB29JOxLrwtLFPlU-31" value="«Component»&lt;br&gt;&lt;b&gt;Component&lt;/b&gt;" style="html=1;dropTarget=0;whiteSpace=wrap;" vertex="1" parent="1">
          <mxGeometry x="621" y="578" width="180" height="90" as="geometry" />
        </mxCell>
        <mxCell id="KCdfxB29JOxLrwtLFPlU-32" value="" style="shape=module;jettyWidth=8;jettyHeight=4;" vertex="1" parent="KCdfxB29JOxLrwtLFPlU-31">
          <mxGeometry x="1" width="20" height="20" relative="1" as="geometry">
            <mxPoint x="-27" y="7" as="offset" />
          </mxGeometry>
        </mxCell>
        <mxCell id="KCdfxB29JOxLrwtLFPlU-71" style="edgeStyle=orthogonalEdgeStyle;rounded=0;orthogonalLoop=1;jettySize=auto;html=1;endArrow=none;endFill=0;dashed=1;fillColor=#d5e8d4;strokeColor=#82b366;strokeWidth=1.5;" edge="1" parent="1" source="KCdfxB29JOxLrwtLFPlU-33" target="KCdfxB29JOxLrwtLFPlU-69">
          <mxGeometry relative="1" as="geometry" />
        </mxCell>
        <mxCell id="KCdfxB29JOxLrwtLFPlU-33" value="«Component»&lt;br&gt;&lt;b&gt;Component&lt;/b&gt;" style="html=1;dropTarget=0;whiteSpace=wrap;" vertex="1" parent="1">
          <mxGeometry x="621" y="693" width="180" height="90" as="geometry" />
        </mxCell>
        <mxCell id="KCdfxB29JOxLrwtLFPlU-34" value="" style="shape=module;jettyWidth=8;jettyHeight=4;" vertex="1" parent="KCdfxB29JOxLrwtLFPlU-33">
          <mxGeometry x="1" width="20" height="20" relative="1" as="geometry">
            <mxPoint x="-27" y="7" as="offset" />
          </mxGeometry>
        </mxCell>
        <mxCell id="KCdfxB29JOxLrwtLFPlU-35" value="&lt;b&gt;Reverse Proxy Server&lt;/b&gt;" style="html=1;dropTarget=0;whiteSpace=wrap;" vertex="1" parent="1">
          <mxGeometry x="271" y="397" width="180" height="90" as="geometry" />
        </mxCell>
        <mxCell id="KCdfxB29JOxLrwtLFPlU-36" value="" style="shape=module;jettyWidth=8;jettyHeight=4;" vertex="1" parent="KCdfxB29JOxLrwtLFPlU-35">
          <mxGeometry x="1" width="20" height="20" relative="1" as="geometry">
            <mxPoint x="-27" y="7" as="offset" />
          </mxGeometry>
        </mxCell>
        <mxCell id="KCdfxB29JOxLrwtLFPlU-37" value="&lt;b&gt;Web Browser&lt;/b&gt;" style="html=1;dropTarget=0;whiteSpace=wrap;" vertex="1" parent="1">
          <mxGeometry x="11" y="397" width="180" height="90" as="geometry" />
        </mxCell>
        <mxCell id="KCdfxB29JOxLrwtLFPlU-38" value="" style="shape=module;jettyWidth=8;jettyHeight=4;" vertex="1" parent="KCdfxB29JOxLrwtLFPlU-37">
          <mxGeometry x="1" width="20" height="20" relative="1" as="geometry">
            <mxPoint x="-27" y="7" as="offset" />
          </mxGeometry>
        </mxCell>
        <mxCell id="KCdfxB29JOxLrwtLFPlU-51" value="" style="endArrow=open;endSize=12;dashed=1;html=1;rounded=0;exitDx=0;exitDy=0;entryX=0;entryY=0.5;entryDx=0;entryDy=0;edgeStyle=orthogonalEdgeStyle;fontColor=default;fillColor=#d5e8d4;strokeColor=#82b366;strokeWidth=1.5;" edge="1" parent="1" source="KCdfxB29JOxLrwtLFPlU-61" target="KCdfxB29JOxLrwtLFPlU-21">
          <mxGeometry x="0.2913" width="160" relative="1" as="geometry">
            <mxPoint x="581" y="488" as="sourcePoint" />
            <mxPoint x="741" y="488" as="targetPoint" />
            <Array as="points">
              <mxPoint x="851" y="398" />
              <mxPoint x="851" y="442" />
            </Array>
            <mxPoint as="offset" />
          </mxGeometry>
        </mxCell>
        <mxCell id="KCdfxB29JOxLrwtLFPlU-52" value="" style="shape=waypoint;sketch=0;size=6;pointerEvents=1;points=[];fillColor=none;resizable=0;rotatable=0;perimeter=centerPerimeter;snapToPoint=1;strokeColor=none;" vertex="1" parent="1">
          <mxGeometry x="841" y="432" width="20" height="20" as="geometry" />
        </mxCell>
        <mxCell id="KCdfxB29JOxLrwtLFPlU-59" value="" style="endArrow=none;endSize=12;dashed=1;rounded=0;exitX=1;exitY=0.5;exitDx=0;exitDy=0;entryDx=0;entryDy=0;entryPerimeter=0;endFill=0;edgeStyle=orthogonalEdgeStyle;fontColor=default;html=1;fillColor=#d5e8d4;strokeColor=#82b366;strokeWidth=1.5;" edge="1" parent="1" source="KCdfxB29JOxLrwtLFPlU-29" target="KCdfxB29JOxLrwtLFPlU-56">
          <mxGeometry width="160" relative="1" as="geometry">
            <mxPoint x="801" y="513" as="sourcePoint" />
            <mxPoint x="851" y="442" as="targetPoint" />
          </mxGeometry>
        </mxCell>
        <mxCell id="KCdfxB29JOxLrwtLFPlU-56" value="" style="shape=waypoint;sketch=0;size=6;pointerEvents=1;points=[];fillColor=none;resizable=0;rotatable=0;perimeter=centerPerimeter;snapToPoint=1;strokeColor=none;" vertex="1" parent="1">
          <mxGeometry x="841" y="503" width="20" height="20" as="geometry" />
        </mxCell>
        <mxCell id="KCdfxB29JOxLrwtLFPlU-62" value="" style="endArrow=none;endSize=12;dashed=1;html=1;rounded=0;exitX=1;exitY=0.5;exitDx=0;exitDy=0;entryDx=0;entryDy=0;edgeStyle=orthogonalEdgeStyle;endFill=0;fillColor=#d5e8d4;strokeColor=#82b366;strokeWidth=1.5;" edge="1" parent="1" source="KCdfxB29JOxLrwtLFPlU-27" target="KCdfxB29JOxLrwtLFPlU-61">
          <mxGeometry x="0.2913" width="160" relative="1" as="geometry">
            <mxPoint x="801" y="398" as="sourcePoint" />
            <mxPoint x="1011" y="442" as="targetPoint" />
            <Array as="points" />
            <mxPoint as="offset" />
          </mxGeometry>
        </mxCell>
        <mxCell id="KCdfxB29JOxLrwtLFPlU-61" value="" style="shape=waypoint;sketch=0;size=6;pointerEvents=1;points=[];fillColor=none;resizable=0;rotatable=0;perimeter=centerPerimeter;snapToPoint=1;strokeColor=none;" vertex="1" parent="1">
          <mxGeometry x="841" y="388" width="20" height="20" as="geometry" />
        </mxCell>
        <mxCell id="KCdfxB29JOxLrwtLFPlU-65" value="" style="edgeStyle=orthogonalEdgeStyle;rounded=0;orthogonalLoop=1;jettySize=auto;html=1;dashed=1;endArrow=none;endFill=0;fillColor=#d5e8d4;strokeColor=#82b366;strokeWidth=1.5;" edge="1" parent="1" source="KCdfxB29JOxLrwtLFPlU-25" target="KCdfxB29JOxLrwtLFPlU-64">
          <mxGeometry relative="1" as="geometry">
            <mxPoint x="801" y="283" as="sourcePoint" />
            <mxPoint x="851" y="398" as="targetPoint" />
          </mxGeometry>
        </mxCell>
        <mxCell id="KCdfxB29JOxLrwtLFPlU-64" value="" style="shape=waypoint;sketch=0;size=6;pointerEvents=1;points=[];fillColor=none;resizable=0;rotatable=0;perimeter=centerPerimeter;snapToPoint=1;strokeColor=none;" vertex="1" parent="1">
          <mxGeometry x="841" y="273" width="20" height="20" as="geometry" />
        </mxCell>
        <mxCell id="KCdfxB29JOxLrwtLFPlU-66" style="edgeStyle=orthogonalEdgeStyle;rounded=0;orthogonalLoop=1;jettySize=auto;html=1;entryX=0.45;entryY=0.8;entryDx=0;entryDy=0;entryPerimeter=0;dashed=1;endArrow=none;endFill=0;fillColor=#d5e8d4;strokeColor=#82b366;strokeWidth=1.5;" edge="1" parent="1" source="KCdfxB29JOxLrwtLFPlU-56" target="KCdfxB29JOxLrwtLFPlU-52">
          <mxGeometry relative="1" as="geometry" />
        </mxCell>
        <mxCell id="KCdfxB29JOxLrwtLFPlU-67" style="edgeStyle=orthogonalEdgeStyle;rounded=0;orthogonalLoop=1;jettySize=auto;html=1;entryX=0.7;entryY=0.35;entryDx=0;entryDy=0;entryPerimeter=0;endArrow=none;endFill=0;dashed=1;fillColor=#d5e8d4;strokeColor=#82b366;strokeWidth=1.5;" edge="1" parent="1" source="KCdfxB29JOxLrwtLFPlU-23" target="KCdfxB29JOxLrwtLFPlU-64">
          <mxGeometry relative="1" as="geometry" />
        </mxCell>
        <mxCell id="KCdfxB29JOxLrwtLFPlU-68" style="edgeStyle=orthogonalEdgeStyle;rounded=0;orthogonalLoop=1;jettySize=auto;html=1;entryX=0.65;entryY=0.9;entryDx=0;entryDy=0;entryPerimeter=0;endArrow=none;endFill=0;dashed=1;fillColor=#d5e8d4;strokeColor=#82b366;strokeWidth=1.5;" edge="1" parent="1" source="KCdfxB29JOxLrwtLFPlU-69" target="KCdfxB29JOxLrwtLFPlU-56">
          <mxGeometry relative="1" as="geometry" />
        </mxCell>
        <mxCell id="KCdfxB29JOxLrwtLFPlU-70" value="" style="edgeStyle=orthogonalEdgeStyle;rounded=0;orthogonalLoop=1;jettySize=auto;html=1;entryDx=0;entryDy=0;entryPerimeter=0;endArrow=none;endFill=0;dashed=1;fillColor=#d5e8d4;strokeColor=#82b366;strokeWidth=1.5;" edge="1" parent="1" source="KCdfxB29JOxLrwtLFPlU-31" target="KCdfxB29JOxLrwtLFPlU-69">
          <mxGeometry relative="1" as="geometry">
            <mxPoint x="801" y="623" as="sourcePoint" />
            <mxPoint x="851" y="513" as="targetPoint" />
          </mxGeometry>
        </mxCell>
        <mxCell id="KCdfxB29JOxLrwtLFPlU-69" value="" style="shape=waypoint;sketch=0;size=6;pointerEvents=1;points=[];fillColor=none;resizable=0;rotatable=0;perimeter=centerPerimeter;snapToPoint=1;strokeColor=none;" vertex="1" parent="1">
          <mxGeometry x="841" y="613" width="20" height="20" as="geometry" />
        </mxCell>
        <mxCell id="KCdfxB29JOxLrwtLFPlU-72" value="" style="endArrow=open;endSize=12;dashed=1;html=1;rounded=0;entryX=0;entryY=0.5;entryDx=0;entryDy=0;exitX=1;exitY=0.5;exitDx=0;exitDy=0;" edge="1" parent="1" source="KCdfxB29JOxLrwtLFPlU-37" target="KCdfxB29JOxLrwtLFPlU-35">
          <mxGeometry width="160" relative="1" as="geometry">
            <mxPoint x="121" y="452" as="sourcePoint" />
            <mxPoint x="201" y="468" as="targetPoint" />
          </mxGeometry>
        </mxCell>
        <mxCell id="KCdfxB29JOxLrwtLFPlU-73" value="" style="endArrow=open;endSize=12;dashed=1;html=1;rounded=0;entryX=0;entryY=0.5;entryDx=0;entryDy=0;edgeStyle=orthogonalEdgeStyle;" edge="1" parent="1" source="KCdfxB29JOxLrwtLFPlU-77" target="KCdfxB29JOxLrwtLFPlU-23">
          <mxGeometry width="160" relative="1" as="geometry">
            <mxPoint x="411" y="452" as="sourcePoint" />
            <mxPoint x="571" y="452" as="targetPoint" />
            <Array as="points">
              <mxPoint x="581" y="173" />
            </Array>
          </mxGeometry>
        </mxCell>
        <mxCell id="KCdfxB29JOxLrwtLFPlU-78" value="" style="endArrow=none;endSize=12;dashed=1;html=1;rounded=0;entryDx=0;entryDy=0;edgeStyle=orthogonalEdgeStyle;endFill=0;" edge="1" parent="1" source="KCdfxB29JOxLrwtLFPlU-80" target="KCdfxB29JOxLrwtLFPlU-77">
          <mxGeometry width="160" relative="1" as="geometry">
            <mxPoint x="581" y="453" as="sourcePoint" />
            <mxPoint x="621" y="173" as="targetPoint" />
            <Array as="points" />
          </mxGeometry>
        </mxCell>
        <mxCell id="KCdfxB29JOxLrwtLFPlU-77" value="" style="shape=waypoint;sketch=0;size=6;pointerEvents=1;points=[];fillColor=none;resizable=0;rotatable=0;perimeter=centerPerimeter;snapToPoint=1;strokeColor=none;" vertex="1" parent="1">
          <mxGeometry x="571" y="273" width="20" height="20" as="geometry" />
        </mxCell>
        <mxCell id="KCdfxB29JOxLrwtLFPlU-79" value="" style="endArrow=open;endSize=12;dashed=1;html=1;rounded=0;" edge="1" parent="1" target="KCdfxB29JOxLrwtLFPlU-25">
          <mxGeometry width="160" relative="1" as="geometry">
            <mxPoint x="581" y="283" as="sourcePoint" />
            <mxPoint x="731" y="478" as="targetPoint" />
            <mxPoint as="offset" />
          </mxGeometry>
        </mxCell>
        <mxCell id="KCdfxB29JOxLrwtLFPlU-80" value="" style="shape=waypoint;sketch=0;size=6;pointerEvents=1;points=[];fillColor=none;resizable=0;rotatable=0;perimeter=centerPerimeter;snapToPoint=1;strokeColor=none;" vertex="1" parent="1">
          <mxGeometry x="571" y="388" width="20" height="20" as="geometry" />
        </mxCell>
        <mxCell id="KCdfxB29JOxLrwtLFPlU-84" value="" style="endArrow=open;endSize=12;dashed=1;html=1;rounded=0;" edge="1" parent="1">
          <mxGeometry width="160" relative="1" as="geometry">
            <mxPoint x="581" y="397.5" as="sourcePoint" />
            <mxPoint x="621" y="398" as="targetPoint" />
          </mxGeometry>
        </mxCell>
        <mxCell id="KCdfxB29JOxLrwtLFPlU-86" value="" style="endArrow=none;endSize=12;dashed=1;html=1;rounded=0;exitDx=0;exitDy=0;edgeStyle=orthogonalEdgeStyle;endFill=0;exitX=0.45;exitY=0.85;exitPerimeter=0;" edge="1" parent="1" source="KCdfxB29JOxLrwtLFPlU-88">
          <mxGeometry width="160" relative="1" as="geometry">
            <mxPoint x="571" y="488" as="sourcePoint" />
            <mxPoint x="581" y="398" as="targetPoint" />
            <Array as="points" />
          </mxGeometry>
        </mxCell>
        <mxCell id="KCdfxB29JOxLrwtLFPlU-87" value="" style="endArrow=open;endSize=12;dashed=1;html=1;rounded=0;exitDx=0;exitDy=0;exitPerimeter=0;entryX=0;entryY=0.5;entryDx=0;entryDy=0;edgeStyle=orthogonalEdgeStyle;" edge="1" parent="1" source="KCdfxB29JOxLrwtLFPlU-92" target="KCdfxB29JOxLrwtLFPlU-29">
          <mxGeometry width="160" relative="1" as="geometry">
            <mxPoint x="451" y="548" as="sourcePoint" />
            <mxPoint x="751" y="538" as="targetPoint" />
            <Array as="points">
              <mxPoint x="581" y="513" />
            </Array>
          </mxGeometry>
        </mxCell>
        <mxCell id="KCdfxB29JOxLrwtLFPlU-89" value="" style="endArrow=none;endSize=12;dashed=1;html=1;rounded=0;exitX=1;exitY=0.5;exitDx=0;exitDy=0;edgeStyle=orthogonalEdgeStyle;endFill=0;entryX=0.35;entryY=0.56;entryDx=0;entryDy=0;entryPerimeter=0;" edge="1" parent="1" source="KCdfxB29JOxLrwtLFPlU-35" target="KCdfxB29JOxLrwtLFPlU-88">
          <mxGeometry width="160" relative="1" as="geometry">
            <mxPoint x="451" y="442" as="sourcePoint" />
            <mxPoint x="521" y="458" as="targetPoint" />
            <Array as="points">
              <mxPoint x="511" y="442" />
              <mxPoint x="511" y="442" />
            </Array>
          </mxGeometry>
        </mxCell>
        <mxCell id="KCdfxB29JOxLrwtLFPlU-88" value="" style="shape=waypoint;sketch=0;size=6;pointerEvents=1;points=[];fillColor=none;resizable=0;rotatable=0;perimeter=centerPerimeter;snapToPoint=1;strokeColor=none;" vertex="1" parent="1">
          <mxGeometry x="571" y="432" width="20" height="20" as="geometry" />
        </mxCell>
        <mxCell id="KCdfxB29JOxLrwtLFPlU-91" value="" style="endArrow=open;endSize=12;dashed=1;html=1;rounded=0;entryX=0;entryY=0.5;entryDx=0;entryDy=0;edgeStyle=orthogonalEdgeStyle;" edge="1" parent="1" source="KCdfxB29JOxLrwtLFPlU-94" target="KCdfxB29JOxLrwtLFPlU-31">
          <mxGeometry width="160" relative="1" as="geometry">
            <mxPoint x="521" y="628" as="sourcePoint" />
            <mxPoint x="681" y="628" as="targetPoint" />
            <Array as="points">
              <mxPoint x="581" y="623" />
            </Array>
          </mxGeometry>
        </mxCell>
        <mxCell id="KCdfxB29JOxLrwtLFPlU-93" value="" style="endArrow=none;endSize=12;dashed=1;html=1;rounded=0;exitX=0.63;exitY=0.62;exitDx=0;exitDy=0;exitPerimeter=0;entryDx=0;entryDy=0;edgeStyle=orthogonalEdgeStyle;endFill=0;" edge="1" parent="1" source="KCdfxB29JOxLrwtLFPlU-88" target="KCdfxB29JOxLrwtLFPlU-92">
          <mxGeometry width="160" relative="1" as="geometry">
            <mxPoint x="581" y="442" as="sourcePoint" />
            <mxPoint x="621" y="513" as="targetPoint" />
            <Array as="points" />
          </mxGeometry>
        </mxCell>
        <mxCell id="KCdfxB29JOxLrwtLFPlU-92" value="" style="shape=waypoint;sketch=0;size=6;pointerEvents=1;points=[];fillColor=none;resizable=0;rotatable=0;perimeter=centerPerimeter;snapToPoint=1;strokeColor=none;" vertex="1" parent="1">
          <mxGeometry x="571" y="503" width="20" height="20" as="geometry" />
        </mxCell>
        <mxCell id="KCdfxB29JOxLrwtLFPlU-95" value="" style="endArrow=none;endSize=12;dashed=1;html=1;rounded=0;entryDx=0;entryDy=0;edgeStyle=orthogonalEdgeStyle;endFill=0;" edge="1" parent="1" source="KCdfxB29JOxLrwtLFPlU-92" target="KCdfxB29JOxLrwtLFPlU-94">
          <mxGeometry width="160" relative="1" as="geometry">
            <mxPoint x="581" y="513" as="sourcePoint" />
            <mxPoint x="621" y="623" as="targetPoint" />
            <Array as="points" />
          </mxGeometry>
        </mxCell>
        <mxCell id="KCdfxB29JOxLrwtLFPlU-94" value="" style="shape=waypoint;sketch=0;size=6;pointerEvents=1;points=[];fillColor=none;resizable=0;rotatable=0;perimeter=centerPerimeter;snapToPoint=1;strokeColor=none;" vertex="1" parent="1">
          <mxGeometry x="571" y="613" width="20" height="20" as="geometry" />
        </mxCell>
        <mxCell id="KCdfxB29JOxLrwtLFPlU-96" value="" style="endArrow=open;endSize=12;dashed=1;html=1;rounded=0;entryX=0;entryY=0.5;entryDx=0;entryDy=0;edgeStyle=orthogonalEdgeStyle;" edge="1" parent="1" source="KCdfxB29JOxLrwtLFPlU-94" target="KCdfxB29JOxLrwtLFPlU-33">
          <mxGeometry width="160" relative="1" as="geometry">
            <mxPoint x="551" y="668" as="sourcePoint" />
            <mxPoint x="711" y="668" as="targetPoint" />
            <Array as="points">
              <mxPoint x="581" y="738" />
            </Array>
          </mxGeometry>
        </mxCell>
        <mxCell id="KCdfxB29JOxLrwtLFPlU-115" value="&lt;b&gt;Payment Service&lt;br&gt;&lt;/b&gt;" style="html=1;dropTarget=0;whiteSpace=wrap;fillColor=#dae8fc;strokeColor=#6c8ebf;" vertex="1" parent="1">
          <mxGeometry x="1020" y="280" width="180" height="80" as="geometry" />
        </mxCell>
        <mxCell id="KCdfxB29JOxLrwtLFPlU-116" value="" style="shape=module;jettyWidth=8;jettyHeight=4;" vertex="1" parent="KCdfxB29JOxLrwtLFPlU-115">
          <mxGeometry x="1" width="20" height="20" relative="1" as="geometry">
            <mxPoint x="-27" y="7" as="offset" />
          </mxGeometry>
        </mxCell>
        <mxCell id="KCdfxB29JOxLrwtLFPlU-122" value="" style="endArrow=none;endSize=12;dashed=1;html=1;rounded=0;exitX=1;exitY=0.25;exitDx=0;exitDy=0;edgeStyle=orthogonalEdgeStyle;endFill=0;jumpStyle=line;fillColor=#f8cecc;strokeColor=#b85450;strokeWidth=1.5;" edge="1" parent="1" source="KCdfxB29JOxLrwtLFPlU-25" target="KCdfxB29JOxLrwtLFPlU-119">
          <mxGeometry width="160" relative="1" as="geometry">
            <mxPoint x="801" y="261" as="sourcePoint" />
            <mxPoint x="860" y="260" as="targetPoint" />
          </mxGeometry>
        </mxCell>
        <mxCell id="KCdfxB29JOxLrwtLFPlU-147" style="edgeStyle=orthogonalEdgeStyle;rounded=0;orthogonalLoop=1;jettySize=auto;html=1;endArrow=none;endFill=0;dashed=1;fillColor=#f8cecc;strokeColor=#b85450;strokeWidth=1.5;" edge="1" parent="1" source="KCdfxB29JOxLrwtLFPlU-119" target="KCdfxB29JOxLrwtLFPlU-144">
          <mxGeometry relative="1" as="geometry" />
        </mxCell>
        <mxCell id="KCdfxB29JOxLrwtLFPlU-119" value="" style="shape=waypoint;sketch=0;size=6;pointerEvents=1;points=[];fillColor=none;resizable=0;rotatable=0;perimeter=centerPerimeter;snapToPoint=1;strokeColor=none;" vertex="1" parent="1">
          <mxGeometry x="871" y="250" width="20" height="20" as="geometry" />
        </mxCell>
        <mxCell id="KCdfxB29JOxLrwtLFPlU-124" value="" style="endArrow=none;endSize=12;dashed=1;html=1;rounded=0;exitDx=0;exitDy=0;entryX=0.729;entryY=0.571;entryDx=0;entryDy=0;entryPerimeter=0;endFill=0;edgeStyle=orthogonalEdgeStyle;jumpStyle=line;fillColor=#f8cecc;strokeColor=#b85450;strokeWidth=1.5;" edge="1" parent="1" source="KCdfxB29JOxLrwtLFPlU-127" target="KCdfxB29JOxLrwtLFPlU-125">
          <mxGeometry width="160" relative="1" as="geometry">
            <mxPoint x="790" y="450" as="sourcePoint" />
            <mxPoint x="910" y="360" as="targetPoint" />
          </mxGeometry>
        </mxCell>
        <mxCell id="KCdfxB29JOxLrwtLFPlU-126" value="" style="endArrow=none;endSize=12;dashed=1;html=1;rounded=0;exitDx=0;exitDy=0;entryDx=0;entryDy=0;edgeStyle=orthogonalEdgeStyle;endFill=0;fillColor=#f8cecc;strokeColor=#b85450;strokeWidth=1.5;" edge="1" parent="1" source="KCdfxB29JOxLrwtLFPlU-119" target="KCdfxB29JOxLrwtLFPlU-125">
          <mxGeometry width="160" relative="1" as="geometry">
            <mxPoint x="881" y="260" as="sourcePoint" />
            <mxPoint x="971" y="320" as="targetPoint" />
            <Array as="points" />
          </mxGeometry>
        </mxCell>
        <mxCell id="KCdfxB29JOxLrwtLFPlU-125" value="" style="shape=waypoint;sketch=0;size=6;pointerEvents=1;points=[];fillColor=none;resizable=0;rotatable=0;perimeter=centerPerimeter;snapToPoint=1;strokeColor=none;" vertex="1" parent="1">
          <mxGeometry x="871" y="310" width="20" height="20" as="geometry" />
        </mxCell>
        <mxCell id="KCdfxB29JOxLrwtLFPlU-128" value="" style="endArrow=none;endSize=12;dashed=1;html=1;rounded=0;exitX=0.997;exitY=0.282;exitDx=0;exitDy=0;entryDx=0;entryDy=0;entryPerimeter=0;endFill=0;edgeStyle=orthogonalEdgeStyle;jumpStyle=line;exitPerimeter=0;fillColor=#f8cecc;strokeColor=#b85450;strokeWidth=1.5;" edge="1" parent="1" source="KCdfxB29JOxLrwtLFPlU-27" target="KCdfxB29JOxLrwtLFPlU-127">
          <mxGeometry width="160" relative="1" as="geometry">
            <mxPoint x="801" y="376" as="sourcePoint" />
            <mxPoint x="881" y="320" as="targetPoint" />
          </mxGeometry>
        </mxCell>
        <mxCell id="KCdfxB29JOxLrwtLFPlU-127" value="" style="shape=waypoint;sketch=0;size=6;pointerEvents=1;points=[];fillColor=none;resizable=0;rotatable=0;perimeter=centerPerimeter;snapToPoint=1;strokeColor=none;" vertex="1" parent="1">
          <mxGeometry x="871" y="368" width="20" height="20" as="geometry" />
        </mxCell>
        <mxCell id="KCdfxB29JOxLrwtLFPlU-129" value="" style="endArrow=none;endSize=12;dashed=1;html=1;rounded=0;exitDx=0;exitDy=0;edgeStyle=orthogonalEdgeStyle;endFill=0;jumpStyle=line;fillColor=#f8cecc;strokeColor=#b85450;strokeWidth=1.5;" edge="1" parent="1" source="KCdfxB29JOxLrwtLFPlU-130" target="KCdfxB29JOxLrwtLFPlU-127">
          <mxGeometry width="160" relative="1" as="geometry">
            <mxPoint x="950" y="540" as="sourcePoint" />
            <mxPoint x="1110" y="540" as="targetPoint" />
          </mxGeometry>
        </mxCell>
        <mxCell id="KCdfxB29JOxLrwtLFPlU-131" value="" style="endArrow=none;endSize=12;dashed=1;html=1;rounded=0;exitX=1;exitY=0.25;exitDx=0;exitDy=0;edgeStyle=orthogonalEdgeStyle;endFill=0;jumpStyle=line;fillColor=#f8cecc;strokeColor=#b85450;strokeWidth=1.5;" edge="1" parent="1" source="KCdfxB29JOxLrwtLFPlU-29" target="KCdfxB29JOxLrwtLFPlU-130">
          <mxGeometry width="160" relative="1" as="geometry">
            <mxPoint x="801" y="491" as="sourcePoint" />
            <mxPoint x="881" y="378" as="targetPoint" />
          </mxGeometry>
        </mxCell>
        <mxCell id="KCdfxB29JOxLrwtLFPlU-130" value="" style="shape=waypoint;sketch=0;size=6;pointerEvents=1;points=[];fillColor=none;resizable=0;rotatable=0;perimeter=centerPerimeter;snapToPoint=1;strokeColor=none;" vertex="1" parent="1">
          <mxGeometry x="871" y="480" width="20" height="20" as="geometry" />
        </mxCell>
        <mxCell id="KCdfxB29JOxLrwtLFPlU-136" value="" style="endArrow=none;endSize=12;dashed=1;html=1;rounded=0;exitDx=0;exitDy=0;entryX=0.61;entryY=0.662;entryDx=0;entryDy=0;entryPerimeter=0;endFill=0;edgeStyle=orthogonalEdgeStyle;fillColor=#f8cecc;strokeColor=#b85450;strokeWidth=1.5;" edge="1" parent="1" source="KCdfxB29JOxLrwtLFPlU-137" target="KCdfxB29JOxLrwtLFPlU-130">
          <mxGeometry width="160" relative="1" as="geometry">
            <mxPoint x="910" y="590" as="sourcePoint" />
            <mxPoint x="1070" y="590" as="targetPoint" />
          </mxGeometry>
        </mxCell>
        <mxCell id="KCdfxB29JOxLrwtLFPlU-138" value="" style="endArrow=none;endSize=12;dashed=1;html=1;rounded=0;exitX=1;exitY=0.25;exitDx=0;exitDy=0;entryDx=0;entryDy=0;entryPerimeter=0;endFill=0;edgeStyle=orthogonalEdgeStyle;jumpStyle=line;fillColor=#f8cecc;strokeColor=#b85450;strokeWidth=1.5;" edge="1" parent="1" source="KCdfxB29JOxLrwtLFPlU-31" target="KCdfxB29JOxLrwtLFPlU-137">
          <mxGeometry width="160" relative="1" as="geometry">
            <mxPoint x="801" y="601" as="sourcePoint" />
            <mxPoint x="881" y="490" as="targetPoint" />
          </mxGeometry>
        </mxCell>
        <mxCell id="KCdfxB29JOxLrwtLFPlU-137" value="" style="shape=waypoint;sketch=0;size=6;pointerEvents=1;points=[];fillColor=none;resizable=0;rotatable=0;perimeter=centerPerimeter;snapToPoint=1;strokeColor=none;" vertex="1" parent="1">
          <mxGeometry x="871" y="590" width="20" height="20" as="geometry" />
        </mxCell>
        <mxCell id="KCdfxB29JOxLrwtLFPlU-139" value="" style="endArrow=none;endSize=12;dashed=1;html=1;rounded=0;exitX=1;exitY=0.25;exitDx=0;exitDy=0;endFill=0;edgeStyle=orthogonalEdgeStyle;jumpStyle=line;fillColor=#f8cecc;strokeColor=#b85450;strokeWidth=1.5;" edge="1" parent="1" source="KCdfxB29JOxLrwtLFPlU-33" target="KCdfxB29JOxLrwtLFPlU-137">
          <mxGeometry width="160" relative="1" as="geometry">
            <mxPoint x="950" y="660" as="sourcePoint" />
            <mxPoint x="1110" y="660" as="targetPoint" />
          </mxGeometry>
        </mxCell>
        <mxCell id="KCdfxB29JOxLrwtLFPlU-140" value="&lt;b&gt;SMTP Server&lt;/b&gt;" style="html=1;dropTarget=0;whiteSpace=wrap;fillColor=#f8cecc;strokeColor=#b85450;" vertex="1" parent="1">
          <mxGeometry x="1020" y="158" width="180" height="80" as="geometry" />
        </mxCell>
        <mxCell id="KCdfxB29JOxLrwtLFPlU-141" value="" style="shape=module;jettyWidth=8;jettyHeight=4;" vertex="1" parent="KCdfxB29JOxLrwtLFPlU-140">
          <mxGeometry x="1" width="20" height="20" relative="1" as="geometry">
            <mxPoint x="-27" y="7" as="offset" />
          </mxGeometry>
        </mxCell>
        <mxCell id="KCdfxB29JOxLrwtLFPlU-146" value="" style="endArrow=none;endSize=12;dashed=1;html=1;rounded=0;entryDx=0;entryDy=0;edgeStyle=orthogonalEdgeStyle;exitX=1;exitY=0.25;exitDx=0;exitDy=0;endFill=0;fillColor=#f8cecc;strokeColor=#b85450;strokeWidth=1.5;" edge="1" parent="1" source="KCdfxB29JOxLrwtLFPlU-23" target="KCdfxB29JOxLrwtLFPlU-144">
          <mxGeometry width="160" relative="1" as="geometry">
            <mxPoint x="801" y="151" as="sourcePoint" />
            <mxPoint x="989" y="198" as="targetPoint" />
            <Array as="points">
              <mxPoint x="881" y="151" />
            </Array>
          </mxGeometry>
        </mxCell>
        <mxCell id="KCdfxB29JOxLrwtLFPlU-144" value="" style="shape=waypoint;sketch=0;size=6;pointerEvents=1;points=[];fillColor=none;resizable=0;rotatable=0;perimeter=centerPerimeter;snapToPoint=1;strokeColor=none;" vertex="1" parent="1">
          <mxGeometry x="871" y="188" width="20" height="20" as="geometry" />
        </mxCell>
        <mxCell id="KCdfxB29JOxLrwtLFPlU-149" value="" style="endArrow=open;endSize=12;dashed=1;html=1;rounded=0;entryX=0;entryY=0.5;entryDx=0;entryDy=0;fillColor=#f8cecc;strokeColor=#b85450;strokeWidth=1.5;" edge="1" parent="1" source="KCdfxB29JOxLrwtLFPlU-144" target="KCdfxB29JOxLrwtLFPlU-140">
          <mxGeometry x="0.0004" width="160" relative="1" as="geometry">
            <mxPoint x="820" y="200" as="sourcePoint" />
            <mxPoint x="980" y="200" as="targetPoint" />
            <mxPoint as="offset" />
          </mxGeometry>
        </mxCell>
        <mxCell id="KCdfxB29JOxLrwtLFPlU-150" value="" style="endArrow=open;endSize=12;dashed=1;html=1;rounded=0;exitX=1;exitY=0.75;exitDx=0;exitDy=0;entryX=0;entryY=0.5;entryDx=0;entryDy=0;edgeStyle=orthogonalEdgeStyle;jumpStyle=line;fillColor=#dae8fc;strokeColor=#6c8ebf;strokeWidth=1.5;" edge="1" parent="1" source="KCdfxB29JOxLrwtLFPlU-27" target="KCdfxB29JOxLrwtLFPlU-115">
          <mxGeometry width="160" relative="1" as="geometry">
            <mxPoint x="890" y="330" as="sourcePoint" />
            <mxPoint x="1050" y="330" as="targetPoint" />
            <Array as="points">
              <mxPoint x="910" y="421" />
              <mxPoint x="910" y="320" />
            </Array>
          </mxGeometry>
        </mxCell>
      </root>
    </mxGraphModel>
  </diagram>
</mxfile>
